<svg version="1.1" xmlns="http://www.w3.org/2000/svg" width="200" height="200">

<path d="M0 0 C3.91178542 2.75763363 4.15977018 7.89275969 4.9362793 12.36499023 C5.35174061 16.85429959 5.41366301 21.29594261 5.3737793 25.80249023 C5.36475586 27.0302417 5.35573242 28.25799316 5.34643555 29.52294922 C5.01732524 47.03093208 1.1461987 61.68604026 -6.27929688 77.48413086 C-7.24585638 79.66972088 -7.24585638 79.66972088 -8.0637207 83.36499023 C-2.1237207 83.03499023 3.8162793 82.70499023 9.9362793 82.36499023 C10.2662793 83.68499023 10.5962793 85.00499023 10.9362793 86.36499023 C9.4363382 87.86493133 7.98968324 87.68106674 5.90112305 87.90014648 C5.09223633 87.9871582 4.28334961 88.07416992 3.44995117 88.16381836 C2.59981445 88.25083008 1.74967773 88.3378418 0.8737793 88.42749023 C-0.40722656 88.56380859 -0.40722656 88.56380859 -1.71411133 88.70288086 C-3.83023605 88.92749745 -5.94692965 89.14674251 -8.0637207 89.36499023 C-8.3937207 92.66499023 -8.7237207 95.96499023 -9.0637207 99.36499023 C-7.6612207 99.81874023 -6.2587207 100.27249023 -4.8137207 100.73999023 C-1.74496712 101.73282228 1.08217596 102.85938526 3.9362793 104.36499023 C3.6062793 106.01499023 3.2762793 107.66499023 2.9362793 109.36499023 C-2.53109261 107.61691894 -7.82196918 105.70704942 -13.0637207 103.36499023 C-13.3524707 104.08686523 -13.6412207 104.80874023 -13.9387207 105.55249023 C-14.98038737 108.1566569 -16.02205404 110.76082357 -17.0637207 113.36499023 C-12.1137207 117.32499023 -7.1637207 121.28499023 -2.0637207 125.36499023 C-2.3937207 126.68499023 -2.7237207 128.00499023 -3.0637207 129.36499023 C-6.92323141 128.77534276 -9.10122645 126.95572478 -12.0637207 124.48999023 C-13.72938979 123.11378194 -15.39600495 121.73871763 -17.0637207 120.36499023 C-17.7237207 119.74366211 -18.3837207 119.12233398 -19.0637207 118.48217773 C-21.05773466 117.06581306 -21.05773466 117.06581306 -23.48168945 117.99389648 C-26.13059076 119.40049914 -28.75480819 120.84532599 -31.3762207 122.30249023 C-36.25654102 124.76669138 -40.79228652 126.2075119 -46.1262207 127.17749023 C-47.1476416 127.36420288 -47.1476416 127.36420288 -48.18969727 127.5546875 C-52.23954192 128.22820063 -56.03688573 128.33548295 -60.1262207 128.23999023 C-62.73770767 128.24209965 -62.73770767 128.24209965 -65.0637207 129.36499023 C-68.13872684 133.43802468 -70.13408655 137.6298129 -72.0637207 142.36499023 C-72.7237207 142.36499023 -73.3837207 142.36499023 -74.0637207 142.36499023 C-75.06832601 140.24216354 -76.06727672 138.11666002 -77.0637207 135.98999023 C-77.6205957 134.80663086 -78.1774707 133.62327148 -78.7512207 132.40405273 C-80.0637207 129.36499023 -80.0637207 129.36499023 -80.0637207 127.36499023 C-81.35149414 127.40624023 -82.63926758 127.44749023 -83.96606445 127.48999023 C-89.06247803 127.48999023 -93.69308637 126.56680732 -98.6262207 125.36499023 C-99.85308594 125.07881836 -99.85308594 125.07881836 -101.10473633 124.78686523 C-103.09315114 124.32173896 -105.07875826 123.84463596 -107.0637207 123.36499023 C-107.3524707 124.12811523 -107.6412207 124.89124023 -107.9387207 125.67749023 C-109.0637207 128.36499023 -109.0637207 128.36499023 -111.0637207 131.36499023 C-111.7237207 131.36499023 -112.3837207 131.36499023 -113.0637207 131.36499023 C-113.49942383 130.21901367 -113.93512695 129.07303711 -114.3840332 127.89233398 C-118.66295055 116.67531519 -118.66295055 116.67531519 -126.0637207 107.36499023 C-129.97486097 108.03899742 -132.93491252 109.90755056 -136.3137207 111.92749023 C-137.39137695 112.5681543 -138.4690332 113.20881836 -139.5793457 113.86889648 C-140.80911133 114.60946289 -140.80911133 114.60946289 -142.0637207 115.36499023 C-142.7237207 114.04499023 -143.3837207 112.72499023 -144.0637207 111.36499023 C-142.46077581 110.07180767 -140.85631928 108.78049867 -139.2512207 107.48999023 C-137.91124023 106.41104492 -137.91124023 106.41104492 -136.54418945 105.31030273 C-134.0637207 103.36499023 -134.0637207 103.36499023 -131.0637207 101.36499023 C-131.3937207 98.39499023 -131.7237207 95.42499023 -132.0637207 92.36499023 C-135.6937207 92.03499023 -139.3237207 91.70499023 -143.0637207 91.36499023 C-143.5587207 88.88999023 -143.5587207 88.88999023 -144.0637207 86.36499023 C-138.6187207 85.86999023 -138.6187207 85.86999023 -133.0637207 85.36499023 C-132.4037207 82.06499023 -131.7437207 78.76499023 -131.0637207 75.36499023 C-131.7237207 75.13811523 -132.3837207 74.91124023 -133.0637207 74.67749023 C-135.63452194 73.55276469 -137.96420247 72.34985268 -140.3762207 70.92749023 C-141.42229492 70.31067383 -141.42229492 70.31067383 -142.48950195 69.68139648 C-143.00899414 69.24698242 -143.52848633 68.81256836 -144.0637207 68.36499023 C-144.0637207 67.37499023 -144.0637207 66.38499023 -144.0637207 65.36499023 C-141.0637207 64.36499023 -141.0637207 64.36499023 -139.16137695 65.14233398 C-138.48977539 65.52518555 -137.81817383 65.90803711 -137.1262207 66.30249023 C-133.92324137 68.12306616 -132.98536037 68.36499023 -129.0637207 68.36499023 C-128.5790332 67.32600586 -128.0943457 66.28702148 -127.5949707 65.21655273 C-123.56198104 56.75205262 -119.37571667 49.38364229 -113.0637207 42.36499023 C-112.35344727 41.54772461 -111.64317383 40.73045898 -110.91137695 39.88842773 C-108.66804695 37.3415188 -106.37835331 34.84718042 -104.0637207 32.36499023 C-103.33926758 31.57479492 -102.61481445 30.78459961 -101.8684082 29.97045898 C-94.37866745 22.11257843 -85.80868505 15.752194 -77.0637207 9.36499023 C-76.40742676 8.88481445 -75.75113281 8.40463867 -75.07495117 7.90991211 C-64.68860957 0.36499023 -64.68860957 0.36499023 -61.0637207 0.36499023 C-59.39414838 6.87895153 -58.8034223 12.71981152 -58.9387207 19.42749023 C-58.94774414 20.2930957 -58.95676758 21.15870117 -58.96606445 22.05053711 C-58.98932347 24.15547802 -59.02518062 26.26027365 -59.0637207 28.36499023 C-52.01229772 28.06096504 -46.98238906 24.83160497 -41.0012207 21.30249023 C-39.97915527 20.71193848 -38.95708984 20.12138672 -37.90405273 19.51293945 C-34.95194564 17.80593875 -32.00767479 16.08599872 -29.0637207 14.36499023 C-25.45745053 12.28265237 -21.84098612 10.21846137 -18.2199707 8.16186523 C-16.5722245 7.2237919 -14.92544236 6.28382024 -13.2902832 5.32397461 C-11.51429536 4.28162981 -9.7278592 3.25955271 -7.9387207 2.23999023 C-6.90489258 1.63928711 -5.87106445 1.03858398 -4.8059082 0.41967773 C-2.0637207 -0.63500977 -2.0637207 -0.63500977 0 0 Z " fill="#030303" transform="translate(166.063720703125,27.635009765625)" data-index="0" style="opacity: 1;"></path>
<path d="M0 0 C1.84765625 0.83203125 1.84765625 0.83203125 3.84765625 3.83203125 C8.04226279 18.74618782 4.43887763 35.80834951 -1.15234375 49.83203125 C-1.81234375 50.82203125 -2.47234375 51.81203125 -3.15234375 52.83203125 C-3.81234375 52.83203125 -4.47234375 52.83203125 -5.15234375 52.83203125 C-6.4140625 50.92578125 -6.4140625 50.92578125 -7.83984375 48.33203125 C-13.11980151 39.34217512 -18.70056909 34.08098775 -27.67578125 28.69140625 C-30.15234375 26.83203125 -30.15234375 26.83203125 -31.13671875 24.79296875 C-31.16126371 21.71257577 -29.35272702 20.0588992 -27.34765625 17.890625 C-7.63356253 -0.59572267 -7.63356253 -0.59572267 0 0 Z " fill="#F9F9F9" transform="translate(159.15234375,41.16796875)" data-index="1" style="opacity: 1;"></path>
<path d="M0 0 C4.82199313 2.75267472 7.7616563 6.25735879 9.4140625 11.57421875 C10.49089843 17.62350297 9.00955784 22.30060188 5.75 27.4375 C1.32519034 31.97875201 -3.52122548 33.49897108 -9.75 33.8125 C-14.29866414 33.68275622 -16.78857057 32.50558518 -20.25 29.4375 C-24.41449524 24.47170622 -26.68408831 20.33356473 -26.59765625 13.62890625 C-25.76605629 8.38702337 -22.40796997 4.51275783 -18.625 1 C-12.95778571 -2.72843046 -6.12284652 -2.71868327 0 0 Z " fill="#F8F8F8" transform="translate(101.25,94.5625)" data-index="2" style="opacity: 1;"></path>
<path d="M0 0 C3.55104382 0.07747732 4.14560345 0.40451761 7.125 2.75 C11.2039302 8.06496966 10.77547504 13.99427357 10.1875 20.4375 C8.6353289 25.67607745 6.0049386 29.68467794 1.1875 32.4375 C-1.8125 33.0625 -1.8125 33.0625 -4.8125 32.4375 C-8.26797212 29.3989079 -10.66231752 26.07234356 -11.0859375 21.4609375 C-11.30141848 13.72019763 -11.06757178 8.3613991 -5.8125 2.4375 C-3.8125 0.4375 -3.8125 0.4375 0 0 Z " fill="#F7F7F7" transform="translate(52.8125,91.5625)" data-index="3"></path>
<path d="M0 0 C4 3 8 6 12 9 C11.67 10.32 11.34 11.64 11 13 C7.29496359 12.39665691 5.14031852 10.77525763 2.25 8.4375 C1.45078125 7.79683594 0.6515625 7.15617188 -0.171875 6.49609375 C-0.77515625 6.00238281 -1.3784375 5.50867188 -2 5 C-1.34 3.35 -0.68 1.7 0 0 Z " fill="#151515" transform="translate(152,144)" data-index="4"></path>
<path d="M0 0 C1.77503906 0.71349609 1.77503906 0.71349609 3.5859375 1.44140625 C4.77445313 1.91449219 5.96296875 2.38757813 7.1875 2.875 C8.10273437 3.24753906 9.01796875 3.62007813 9.9609375 4.00390625 C8.9609375 7.00390625 8.9609375 7.00390625 6.9609375 8.00390625 C6.6309375 8.66390625 6.3009375 9.32390625 5.9609375 10.00390625 C4.11972535 8.91292827 2.28812494 7.80571374 0.4609375 6.69140625 C-0.56 6.07652344 -1.5809375 5.46164063 -2.6328125 4.828125 C-3.82390625 3.92513672 -3.82390625 3.92513672 -5.0390625 3.00390625 C-5.0390625 2.01390625 -5.0390625 1.02390625 -5.0390625 0.00390625 C-3.0390625 -0.99609375 -3.0390625 -0.99609375 0 0 Z " fill="#171717" transform="translate(27.0390625,92.99609375)" data-index="5"></path>
<path d="M0 0 C3.63 0 7.26 0 11 0 C11.33 0.66 11.66 1.32 12 2 C11.67 2.99 11.34 3.98 11 5 C7.7 5 4.4 5 1 5 C0.67 3.35 0.34 1.7 0 0 Z " fill="#171717" transform="translate(22,114)" data-index="6"></path>
<path d="M0 0 C4.95 1.98 4.95 1.98 10 4 C9.67 5.65 9.34 7.3 9 9 C7.53932801 8.54917531 6.08151968 8.08906463 4.625 7.625 C3.81289062 7.36976563 3.00078125 7.11453125 2.1640625 6.8515625 C0 6 0 6 -2 4 C-1.34 3.34 -0.68 2.68 0 2 C0 1.34 0 0.68 0 0 Z " fill="#161616" transform="translate(160,128)" data-index="7"></path>
<path d="M0 0 C0.66 0.33 1.32 0.66 2 1 C1.690625 1.5775 1.38125 2.155 1.0625 2.75 C-0.36547957 5.7646204 -0.36547957 5.7646204 -1 9 C0.35444301 10.77190909 0.35444301 10.77190909 2 12 C1.67 12.66 1.34 13.32 1 14 C-1.91517292 12.92598892 -3.77810176 12.22189824 -6 10 C-5.89834392 6.23872509 -5.00920966 5.01010816 -2.4375 2.1875 C-1.2309375 1.1046875 -1.2309375 1.1046875 0 0 Z " fill="#E4E4E4" transform="translate(134,57)" data-index="8" style="opacity: 1;"></path>
<path d="M0 0 C0.66 0 1.32 0 2 0 C1.43697042 3.94120709 0.3208055 6.7508723 -2 10 C-2.66 10 -3.32 10 -4 10 C-4.66 8.02 -5.32 6.04 -6 4 C-4.68 3.01 -3.36 2.02 -2 1 C-1.34 1.33 -0.68 1.66 0 2 C0 1.34 0 0.68 0 0 Z " fill="#121212" transform="translate(57,149)" data-index="9"></path>
<path d="M0 0 C0.8353125 0.37125 0.8353125 0.37125 1.6875 0.75 C0.6975 2.235 0.6975 2.235 -0.3125 3.75 C-0.9725 3.75 -1.6325 3.75 -2.3125 3.75 C-2.6425 4.41 -2.9725 5.07 -3.3125 5.75 C-3.9725 5.75 -4.6325 5.75 -5.3125 5.75 C-6.66132408 6.38474075 -7.9971659 7.04848848 -9.3125 7.75 C-7.69865111 3.642021 -4.79776509 -0.51867731 0 0 Z " fill="#E7E7E7" transform="translate(87.3125,94.25)" data-index="10"></path>
<path d="M0 0 C2.475 0.99 2.475 0.99 5 2 C5 2.66 5 3.32 5 4 C5.66 4 6.32 4 7 4 C7 4.66 7 5.32 7 6 C7.66 6 8.32 6 9 6 C8.34 7.32 7.68 8.64 7 10 C6.236875 9.071875 5.47375 8.14375 4.6875 7.1875 C2.88151448 5.01723899 1.0523371 2.94431935 -1 1 C-0.67 0.67 -0.34 0.34 0 0 Z " fill="#E5E5E5" transform="translate(139,72)" data-index="11"></path>

<path d="M0 0 C1.32 0.66 2.64 1.32 4 2 C2.35 3.32 0.7 4.64 -1 6 C-1.33 5.01 -1.66 4.02 -2 3 C-1.34 2.01 -0.68 1.02 0 0 Z " fill="#131313" transform="translate(142,46)" data-index="13" style="opacity: 1; visibility: hidden;"></path>
</svg>